<svg width="64" height="64" viewBox="0 0 64 64" fill="none" xmlns="http://www.w3.org/2000/svg">
  <defs>
    <linearGradient id="dhlg" x1="0" y1="0" x2="64" y2="64" gradientUnits="userSpaceOnUse">
      <stop stop-color="#0ea5b7"/>
      <stop offset="1" stop-color="#0b6e8f"/>
    </linearGradient>
  </defs>
  <rect width="64" height="64" rx="16" fill="url(#dhlg)"/>
  <path d="M32 13c-6 7-9 12-9 16.5C23 35.3 27 39 32 39s9-3.7 9-9.5C41 25 38 20 32 13z" fill="#fff"/>
  <circle cx="32" cy="28.5" r="3.2" fill="#0b6e8f"/>
  <path d="M12 45c3 0 3 2.4 6.5 2.4S22 45 25 45s3 2.4 6.5 2.4S35 45 38 45s3 2.4 6.5 2.4S48 45 51 45" stroke="#fff" stroke-width="2.4" stroke-linecap="round" opacity="0.95"/>
  <path d="M12 51.5c3 0 3 2.4 6.5 2.4S22 51.5 25 51.5s3 2.4 6.5 2.4S35 51.5 38 51.5s3 2.4 6.5 2.4S48 51.5 51 51.5" stroke="#fff" stroke-width="2.4" stroke-linecap="round" opacity="0.6"/>
</svg>
